<svg width="300" height="300" viewBox="0 0 300 300" xmlns="http://www.w3.org/2000/svg">
  <defs>
    <linearGradient id="bgGradient" x1="0%" y1="0%" x2="100%" y2="100%">
      <stop offset="0%" style="stop-color:#FF004F;stop-opacity:0.1" />
      <stop offset="100%" style="stop-color:#FF004F;stop-opacity:0.3" />
    </linearGradient>
    <linearGradient id="faceGradient" x1="0%" y1="0%" x2="100%" y2="100%">
      <stop offset="0%" style="stop-color:#FFE0B2;stop-opacity:1" />
      <stop offset="100%" style="stop-color:#FFCC80;stop-opacity:1" />
    </linearGradient>
    <linearGradient id="hairGradient" x1="0%" y1="0%" x2="100%" y2="100%">
      <stop offset="0%" style="stop-color:#6D4C41;stop-opacity:1" />
      <stop offset="100%" style="stop-color:#5D4037;stop-opacity:1" />
    </linearGradient>
    <linearGradient id="shirtGradient" x1="0%" y1="0%" x2="100%" y2="100%">
      <stop offset="0%" style="stop-color:#FF004F;stop-opacity:1" />
      <stop offset="100%" style="stop-color:#D50036;stop-opacity:1" />
    </linearGradient>
  </defs>
  
  <!-- Background Circle -->
  <circle cx="150" cy="150" r="150" fill="url(#bgGradient)" stroke="#FF004F" stroke-width="2"/>
  
  <!-- Shirt/Shoulders -->
  <path d="M 80 250 Q 100 220 120 240 L 120 300 L 180 300 L 180 240 Q 200 220 220 250 L 220 300 L 80 300 Z" 
        fill="url(#shirtGradient)" stroke="#D50036" stroke-width="1"/>
  
  <!-- Neck -->
  <ellipse cx="150" cy="230" rx="25" ry="35" fill="url(#faceGradient)"/>
  
  <!-- Head -->
  <circle cx="150" cy="180" r="55" fill="url(#faceGradient)" stroke="#FFAB91" stroke-width="1"/>
  
  <!-- Hair -->
  <path d="M 95 170 Q 95 130 150 125 Q 205 130 205 170 Q 205 155 190 150 Q 175 145 150 145 Q 125 145 110 150 Q 95 155 95 170 Z" 
        fill="url(#hairGradient)" stroke="#5D4037" stroke-width="1"/>
  
  <!-- Eyes -->
  <ellipse cx="135" cy="175" rx="8" ry="6" fill="#333"/>
  <ellipse cx="165" cy="175" rx="8" ry="6" fill="#333"/>
  <circle cx="135" cy="175" r="2" fill="#FFF"/>
  <circle cx="165" cy="175" r="2" fill="#FFF"/>
  
  <!-- Eyebrows -->
  <path d="M 125 165 Q 135 162 145 165" stroke="#5D4037" stroke-width="3" fill="none" stroke-linecap="round"/>
  <path d="M 155 165 Q 165 162 175 165" stroke="#5D4037" stroke-width="3" fill="none" stroke-linecap="round"/>
  
  <!-- Nose -->
  <ellipse cx="150" cy="185" rx="3" ry="8" fill="#FFAB91"/>
  
  <!-- Mouth -->
  <path d="M 140 200 Q 150 210 160 200" stroke="#E57373" stroke-width="3" fill="none" stroke-linecap="round"/>
  
  <!-- Ears -->
  <ellipse cx="95" cy="180" rx="8" ry="15" fill="url(#faceGradient)" stroke="#FFAB91" stroke-width="1"/>
  <ellipse cx="205" cy="180" rx="8" ry="15" fill="url(#faceGradient)" stroke="#FFAB91" stroke-width="1"/>
  
  <!-- Facial Details -->
  <circle cx="125" cy="190" r="2" fill="#FFAB91" opacity="0.5"/>
  <circle cx="175" cy="190" r="2" fill="#FFAB91" opacity="0.5"/>
  
  <!-- Shirt Details -->
  <circle cx="150" cy="270" r="5" fill="#D50036"/>
  <circle cx="135" cy="285" r="3" fill="#D50036"/>
  <circle cx="165" cy="285" r="3" fill="#D50036"/>
  
  <!-- Subtle Shadows -->
  <ellipse cx="150" cy="210" rx="45" ry="8" fill="#000" opacity="0.1"/>
  <ellipse cx="150" cy="240" rx="20" ry="5" fill="#000" opacity="0.1"/>
</svg>
